<svg width="19" height="19" viewBox="0 0 19 19" fill="none" xmlns="http://www.w3.org/2000/svg">
<path d="M0.486085 0.486115C0.610908 0.360977 0.759192 0.261692 0.922444 0.19395C1.0857 0.126208 1.26071 0.0913391 1.43746 0.0913391C1.61421 0.0913391 1.78922 0.126208 1.95248 0.19395C2.11573 0.261692 2.26401 0.360977 2.38884 0.486115L9.49996 7.59993L16.6111 0.486115C16.736 0.361179 16.8843 0.262074 17.0476 0.194459C17.2108 0.126844 17.3858 0.0920427 17.5625 0.0920427C17.7391 0.0920427 17.9141 0.126844 18.0773 0.194459C18.2406 0.262074 18.3889 0.361179 18.5138 0.486115C18.6388 0.611052 18.7379 0.759372 18.8055 0.92261C18.8731 1.08585 18.9079 1.2608 18.9079 1.43749C18.9079 1.61418 18.8731 1.78913 18.8055 1.95237C18.7379 2.11561 18.6388 2.26393 18.5138 2.38887L11.4 9.49999L18.5138 16.6111C18.6388 16.7361 18.7379 16.8844 18.8055 17.0476C18.8731 17.2108 18.9079 17.3858 18.9079 17.5625C18.9079 17.7392 18.8731 17.9141 18.8055 18.0774C18.7379 18.2406 18.6388 18.3889 18.5138 18.5139C18.3889 18.6388 18.2406 18.7379 18.0773 18.8055C17.9141 18.8731 17.7391 18.9079 17.5625 18.9079C17.3858 18.9079 17.2108 18.8731 17.0476 18.8055C16.8843 18.7379 16.736 18.6388 16.6111 18.5139L9.49996 11.4001L2.38884 18.5139C2.2639 18.6388 2.11558 18.7379 1.95234 18.8055C1.7891 18.8731 1.61415 18.9079 1.43746 18.9079C1.26077 18.9079 1.08582 18.8731 0.922579 18.8055C0.759342 18.7379 0.611021 18.6388 0.486085 18.5139C0.361149 18.3889 0.262043 18.2406 0.194428 18.0774C0.126813 17.9141 0.0920121 17.7392 0.0920121 17.5625C0.0920121 17.3858 0.126813 17.2108 0.194428 17.0476C0.262043 16.8844 0.361149 16.7361 0.486085 16.6111L7.5999 9.49999L0.486085 2.38887C0.360946 2.26404 0.261662 2.11576 0.19392 1.95251C0.126177 1.78925 0.0913086 1.61424 0.0913086 1.43749C0.0913086 1.26074 0.126177 1.08573 0.19392 0.922475C0.261662 0.759222 0.360946 0.610938 0.486085 0.486115Z" fill="black"/>
</svg>
