<svg width="30" height="30" viewBox="0 0 45 45" fill="none" xmlns="http://www.w3.org/2000/svg">
    <g clip-path="url(#clip0_45_22)">
        <path
            d="M22.5 13.3706C21.3011 13.3706 20.114 13.6068 19.0064 14.0656C17.8987 14.5244 16.8923 15.1968 16.0446 16.0446C15.1968 16.8923 14.5244 17.8987 14.0656 19.0064C13.6068 20.114 13.3706 21.3011 13.3706 22.5C13.3706 23.6989 13.6068 24.886 14.0656 25.9937C14.5244 27.1013 15.1968 28.1077 16.0446 28.9555C16.8923 29.8032 17.8987 30.4757 19.0064 30.9345C20.114 31.3932 21.3011 31.6294 22.5 31.6294C24.9213 31.6294 27.2434 30.6675 28.9555 28.9555C30.6675 27.2434 31.6294 24.9213 31.6294 22.5C31.6294 20.0787 30.6675 17.7567 28.9555 16.0446C27.2434 14.3325 24.9213 13.3706 22.5 13.3706ZM16.1831 22.5C16.1831 20.8247 16.8487 19.2179 18.0333 18.0333C19.218 16.8487 20.8247 16.1831 22.5 16.1831C24.1754 16.1831 25.7821 16.8487 26.9667 18.0333C28.1514 19.2179 28.8169 20.8247 28.8169 22.5C28.8169 24.1753 28.1514 25.7821 26.9667 26.9667C25.7821 28.1514 24.1754 28.8169 22.5 28.8169C20.8247 28.8169 19.218 28.1514 18.0333 26.9667C16.8487 25.7821 16.1831 24.1753 16.1831 22.5Z"
            fill="black" />
        <path
            d="M27.5514 3.77734C26.0692 -1.25704 18.9311 -1.25704 17.4489 3.77734L17.1845 4.67452C17.081 5.02595 16.9002 5.34976 16.6553 5.62222C16.4103 5.89468 16.1076 6.10887 15.7691 6.24911C15.4307 6.38934 15.0651 6.45206 14.6993 6.43267C14.3334 6.41327 13.9766 6.31226 13.6548 6.13703L12.8336 5.68703C8.22109 3.17828 3.17828 8.2239 5.68984 12.8336L6.13703 13.6548C6.31226 13.9766 6.41327 14.3334 6.43267 14.6993C6.45206 15.0651 6.38934 15.4307 6.24911 15.7691C6.10887 16.1076 5.89468 16.4103 5.62222 16.6553C5.34976 16.9002 5.02595 17.081 4.67452 17.1845L3.77734 17.4489C-1.25704 18.9311 -1.25704 26.0692 3.77734 27.5514L4.67452 27.8158C5.02595 27.9193 5.34976 28.1001 5.62222 28.345C5.89468 28.59 6.10887 28.8927 6.24911 29.2312C6.38934 29.5696 6.45206 29.9352 6.43267 30.301C6.41327 30.6669 6.31226 31.0237 6.13703 31.3455L5.68703 32.1667C3.17828 36.7792 8.22109 41.8248 12.8336 39.3105L13.6548 38.8633C13.9766 38.688 14.3334 38.587 14.6993 38.5676C15.0651 38.5482 15.4307 38.611 15.7691 38.7512C16.1076 38.8914 16.4103 39.1056 16.6553 39.3781C16.9002 39.6505 17.081 39.9743 17.1845 40.3258L17.4489 41.223C18.9311 46.2573 26.0692 46.2573 27.5514 41.223L27.8158 40.3258C27.9193 39.9743 28.1001 39.6505 28.345 39.3781C28.59 39.1056 28.8927 38.8914 29.2312 38.7512C29.5696 38.611 29.9352 38.5482 30.301 38.5676C30.6669 38.587 31.0237 38.688 31.3455 38.8633L32.1667 39.3133C36.7792 41.8248 41.8248 36.7764 39.3105 32.1667L38.8633 31.3455C38.688 31.0237 38.587 30.6669 38.5676 30.301C38.5482 29.9352 38.611 29.5696 38.7512 29.2312C38.8914 28.8927 39.1056 28.59 39.3781 28.345C39.6505 28.1001 39.9743 27.9193 40.3258 27.8158L41.223 27.5514C46.2573 26.0692 46.2573 18.9311 41.223 17.4489L40.3258 17.1845C39.9743 17.081 39.6505 16.9002 39.3781 16.6553C39.1056 16.4103 38.8914 16.1076 38.7512 15.7691C38.611 15.4307 38.5482 15.0651 38.5676 14.6993C38.587 14.3334 38.688 13.9766 38.8633 13.6548L39.3133 12.8336C41.8248 8.22109 36.7764 3.17828 32.1667 5.68984L31.3455 6.13703C31.0237 6.31226 30.6669 6.41327 30.301 6.43267C29.9352 6.45206 29.5696 6.38934 29.2312 6.24911C28.8927 6.10887 28.59 5.89468 28.345 5.62222C28.1001 5.34976 27.9193 5.02595 27.8158 4.67452L27.5514 3.77734ZM20.1461 4.57328C20.838 2.22484 24.1623 2.22484 24.8542 4.57328L25.1186 5.47046C25.3408 6.22445 25.729 6.91915 26.2546 7.50362C26.7803 8.08809 27.43 8.54751 28.1563 8.84822C28.8826 9.14892 29.6669 9.28328 30.4519 9.24143C31.2368 9.19959 32.0025 8.98261 32.6926 8.6064L33.5111 8.1564C35.6598 6.98921 38.0111 9.33765 36.8411 11.4892L36.3939 12.3105C36.0183 13.0007 35.8018 13.7663 35.7604 14.5511C35.719 15.3358 35.8537 16.1199 36.1547 16.8459C36.4556 17.5718 36.9152 18.2212 37.4997 18.7465C38.0842 19.2718 38.7788 19.6597 39.5327 19.8817L40.427 20.1461C42.7755 20.838 42.7755 24.1623 40.427 24.8542L39.5298 25.1186C38.7758 25.3408 38.0812 25.729 37.4967 26.2546C36.9122 26.7803 36.4528 27.43 36.1521 28.1563C35.8514 28.8826 35.717 29.6669 35.7589 30.4519C35.8007 31.2368 36.0177 32.0025 36.3939 32.6926L36.8439 33.5111C38.0111 35.6598 35.6627 38.0111 33.5111 36.8411L32.6926 36.3939C32.0023 36.0177 31.2365 35.8009 30.4514 35.7592C29.6663 35.7175 28.8818 35.8521 28.1555 36.1531C27.4292 36.4541 26.7794 36.9138 26.2539 37.4986C25.7284 38.0834 25.3405 38.7784 25.1186 39.5327L24.8542 40.427C24.1623 42.7755 20.838 42.7755 20.1461 40.427L19.8817 39.5298C19.6594 38.7762 19.2713 38.0819 18.7458 37.4977C18.2204 36.9136 17.5709 36.4543 16.845 36.1537C16.1191 35.853 15.3351 35.7185 14.5505 35.7601C13.7659 35.8017 13.0005 36.0182 12.3105 36.3939L11.4892 36.8439C9.34046 38.0111 6.98921 35.6627 8.15921 33.5111L8.6064 32.6926C8.98314 32.0024 9.20054 31.2365 9.24266 30.4512C9.28478 29.6659 9.15055 28.8812 8.8498 28.1545C8.54906 27.4279 8.08945 26.7778 7.50468 26.252C6.91992 25.7262 6.22485 25.3379 5.47046 25.1158L4.57328 24.8514C2.22484 24.1595 2.22484 20.8352 4.57328 20.1433L5.47046 19.8789C6.22367 19.6565 6.9176 19.2684 7.50149 18.7432C8.08537 18.2179 8.54442 17.5688 8.84505 16.8432C9.14568 16.1177 9.28027 15.3341 9.23898 14.5498C9.19768 13.7656 8.98155 13.0004 8.6064 12.3105L8.1564 11.4892C6.98921 9.34046 9.33765 6.98921 11.4892 8.15921L12.3105 8.6064C13.0005 8.98208 13.7659 9.19864 14.5505 9.24021C15.3351 9.28177 16.1191 9.1473 16.845 8.84663C17.5709 8.54597 18.2204 8.08673 18.7458 7.50255C19.2713 6.91838 19.6594 6.22406 19.8817 5.47046L20.1461 4.57328Z"
            fill="black" />
    </g>
    <defs>
        <clipPath id="clip0_45_22">
            <rect width="45" height="45" fill="white" />
        </clipPath>
    </defs>
</svg>