<svg width="45" height="45" viewBox="0 0 45 45" fill="none" xmlns="http://www.w3.org/2000/svg">
    <g clip-path="url(#clip0_45_25)">
        <path
            d="M5.625 2.8125C4.87908 2.8125 4.16371 3.10882 3.63626 3.63626C3.10882 4.16371 2.8125 4.87908 2.8125 5.625V39.375C2.8125 40.1209 3.10882 40.8363 3.63626 41.3637C4.16371 41.8912 4.87908 42.1875 5.625 42.1875H39.375C40.1209 42.1875 40.8363 41.8912 41.3637 41.3637C41.8912 40.8363 42.1875 40.1209 42.1875 39.375V5.625C42.1875 4.87908 41.8912 4.16371 41.3637 3.63626C40.8363 3.10882 40.1209 2.8125 39.375 2.8125H26.7188C25.9728 2.8125 25.2575 3.10882 24.73 3.63626C24.2026 4.16371 23.9062 4.87908 23.9062 5.625V26.1366L31.3481 18.6919C31.6122 18.4278 31.9703 18.2795 32.3438 18.2795C32.7172 18.2795 33.0753 18.4278 33.3394 18.6919C33.6034 18.9559 33.7518 19.3141 33.7518 19.6875C33.7518 20.0609 33.6034 20.4191 33.3394 20.6831L23.4956 30.5269C23.365 30.6578 23.2098 30.7617 23.039 30.8326C22.8681 30.9035 22.685 30.94 22.5 30.94C22.315 30.94 22.1319 30.9035 21.961 30.8326C21.7902 30.7617 21.635 30.6578 21.5044 30.5269L11.6606 20.6831C11.5299 20.5524 11.4262 20.3972 11.3554 20.2263C11.2846 20.0555 11.2482 19.8724 11.2482 19.6875C11.2482 19.5026 11.2846 19.3195 11.3554 19.1487C11.4262 18.9778 11.5299 18.8226 11.6606 18.6919C11.7914 18.5611 11.9466 18.4574 12.1174 18.3867C12.2883 18.3159 12.4713 18.2795 12.6562 18.2795C12.8412 18.2795 13.0242 18.3159 13.1951 18.3867C13.3659 18.4574 13.5211 18.5611 13.6519 18.6919L21.0938 26.1366V5.625C21.0938 4.13316 21.6864 2.70242 22.7413 1.64752C23.7962 0.592632 25.2269 0 26.7188 0L39.375 0C40.8668 0 42.2976 0.592632 43.3525 1.64752C44.4074 2.70242 45 4.13316 45 5.625V39.375C45 40.8668 44.4074 42.2976 43.3525 43.3525C42.2976 44.4074 40.8668 45 39.375 45H5.625C4.13316 45 2.70242 44.4074 1.64752 43.3525C0.592632 42.2976 0 40.8668 0 39.375V5.625C0 4.13316 0.592632 2.70242 1.64752 1.64752C2.70242 0.592632 4.13316 0 5.625 0L12.6562 0C13.0292 0 13.3869 0.148158 13.6506 0.411881C13.9143 0.675604 14.0625 1.03329 14.0625 1.40625C14.0625 1.77921 13.9143 2.1369 13.6506 2.40062C13.3869 2.66434 13.0292 2.8125 12.6562 2.8125H5.625Z"
            fill="white" />
    </g>
    <defs>
        <clipPath id="clip0_45_25">
            <rect width="45" height="45" fill="white" />
        </clipPath>
    </defs>
</svg>