<svg width="30" height="29" viewBox="0 0 30 29" fill="none" xmlns="http://www.w3.org/2000/svg">
<path fill-rule="evenodd" clip-rule="evenodd" d="M30 26.5514L27.879 28.5714L21.5145 22.5114L23.6355 20.49L30 26.5514ZM12 20C7.03799 20 3.00001 16.1557 3.00001 11.4286C3.00001 6.70286 7.03799 2.85714 12 2.85714C16.962 2.85714 21 6.70286 21 11.4286C21 16.1557 16.962 20 12 20ZM12 0C5.37299 0 0 5.11714 0 11.4286C0 17.74 5.37299 22.8571 12 22.8571C18.627 22.8571 24 17.74 24 11.4286C24 5.11714 18.627 0 12 0Z" fill="black"/>
</svg>
